<?xml version='1.0' encoding='UTF-8'?>
<svg xmlns="http://www.w3.org/2000/svg" version="1.1" width="165" height="55" viewBox="-48 -33 41 14" id="svg3026">
  <title>Observed wind speed: 218-222 knots</title>
  <desc>WMO international weather symbol: Observed wind speed: 218-222 knots</desc>
  <g transform="matrix(0.66,0,0,0.61,-16,0.82)" id="g2993">
    <g transform="translate(0,-36)" id="g3029" style="fill:#000000;stroke:none">
      <path d="m -43,1.2 0,-0.95 5,-17.25 5,17.25 0,0.95" id="path3031"/>
      <path d="m -34,1 0,-1 5,-17 5,17 0,1" id="path3033"/>
    </g>
    <g transform="matrix(1.4,0,0,1,15,-36)" id="g3035" style="fill:none;stroke:#000000;stroke-width:2">
      <path d="M 0,0 H -40" id="path3037"/>
    </g>
    <path d="m -25,-36 0,-1 5,-17 5,17 0,1" id="path3033-9" style="fill:#000000;stroke:none"/>
    <path d="m -16,-36 0,-1 5,-17 5.5,17 0,1" id="path3033-9-1" style="fill:#000000;stroke:none"/>
    <path d="m -2.5,-37 -5,-17" id="path3022" style="fill:none;stroke:#000000;stroke-width:2"/>
    <path d="m 1.5,-37 -5,-17" id="path3022-1" style="fill:none;stroke:#000000;stroke-width:2"/>
  </g>
</svg>

