<?xml version='1.0' encoding='UTF-8'?>
<svg xmlns="http://www.w3.org/2000/svg" version="1.0" width="55" height="55" id="svg2">
  <title>Clouds of the genera Altocumulus, Altostratus and Nimbostratus: Altocumulus cumulogenitus (or cumulonimbogenitus)</title>
  <desc>WMO international weather symbol: Clouds of the genera Altocumulus, Altostratus and Nimbostratus: Altocumulus resulting from the spreading out of cumulus (or cumulonimbus)</desc>
  <g transform="translate(-0.2,-7.92)" id="g3856">
    <g transform="matrix(0.465,0,0,0.387,-0.26,-14.6)" id="layer1">
      <g id="g8558">
        <g transform="matrix(0.802,0,0,0.995,-69.5,-444)" id="g3292"/>
        <path d="m 14,13 a 5.97,6 0 0 1 0,12" transform="matrix(0,4.38,-3.64,0,151,30.7)" id="path8520" style="fill:none;stroke:#000000;stroke-width:1.18099999;stroke-linecap:round;stroke-linejoin:miter;stroke-miterlimit:4;stroke-opacity:1;stroke-dasharray:none"/>
        <path d="M 14.3,13 A 5.9718841,6.0018936 0 0 1 14,25" transform="matrix(0,4.39,-3.65,0,107,30.6)" id="path8520-8" style="fill:none;stroke:#000000;stroke-width:1.17799997;stroke-linecap:round;stroke-linejoin:miter;stroke-miterlimit:4;stroke-opacity:1;stroke-dasharray:none"/>
      </g>
    </g>
    <path d="M 23.9,50 A 5.00025,5.00025 0 0 1 24,40" transform="matrix(0,3.24,-3.84,0,200,-30.8)" id="path3086" style="fill:none;stroke:#000000;stroke-width:0.56699997;stroke-linecap:round;stroke-linejoin:round;stroke-miterlimit:4;stroke-opacity:1;stroke-dasharray:none"/>
  </g>
</svg>

