<?xml version='1.0' encoding='UTF-8'?>
<svg xmlns="http://www.w3.org/2000/svg" version="1.1" width="55" height="55" viewBox="-27.5 -27.5 55 55" id="svg3131">
  <title>Present weather reported from a manned weather station: Dust or sand raised by wind at or near the station at the time of observation, but no well developed dust whirl(s) or sand whirl(s), and no duststorm or sandstorm seen; or, in the case of ships, blowing spray at the station</title>
  <desc>WMO international weather symbol: No precipitation at the station at the time of observation: No precipitation, fog, ice fog, duststorm, sandstorm, drifting or blowing snow at the station* at the time of observation or during the preceding hour. *The expression “at the station” refers to a land station or a ship: Haze, dust, sand or smoke: Present weather reported from a manned weather station: Dust or sand raised by wind at or near the station at the time of observation, but no well developed dust whirl(s) or sand whirl(s), and no duststorm or sandstorm seen; or, in the case of ships, blowing spray at the station</desc>
  <g transform="matrix(0.89373537,0,0,0.80096534,-16.492565,-5.0105932)" id="ww_07" style="fill:none;stroke:#000000;stroke-width:3">
    <path d="m 9.5,-9.5 a 9.5,9.5 0 0 0 -19,0 9.5,9.5 0 0 0 9.5,9.5 9.5,9.5 0 0 1 9.5,9.5 9.5,9.5 0 0 1 -19,0" id="path3135" style="stroke-width:2.999717;stroke-miterlimit:4;stroke-dasharray:none"/>
    <path d="M 0,-24 V 24" id="path3137" style="stroke-width:2.95480394;stroke-miterlimit:4;stroke-dasharray:none"/>
    <path d="M 30.525098,-18.198744 C 23.033544,-2.1745144 14.766999,16.154491 6.2421269,33.037827" id="path5800" style="stroke-width:1.3079226;stroke-miterlimit:4;stroke-dasharray:none"/>
    <g transform="matrix(0.56185649,0,0,1.1267411,12.388197,-3.3141143)" id="g6607" style="stroke-width:3.71367502;stroke-miterlimit:4;stroke-dasharray:none">
      <g transform="matrix(0,-0.7969285,1.3219095,0,36.523498,14.95909)" id="ww_08" style="fill:none;stroke:#000000;stroke-width:3.6182065;stroke-miterlimit:4;stroke-dasharray:none">
        <path d="M -24.745184,-13.633407 C -1.8559622,11.372628 20.748078,12.360652 20.748078,0.43398255 20.748078,-11.492688 -0.6934998,-12.786038 -23.92183,13.678017" id="path3001" style="stroke-width:3.6182065;stroke-miterlimit:4;stroke-dasharray:none"/>
      </g>
    </g>
  </g>
</svg>

