<?xml version='1.0' encoding='UTF-8'?>
<svg xmlns="http://www.w3.org/2000/svg" version="1.1" width="55" height="55" viewBox="-27.5 -27.5 55 55" id="svg2997">
  <title>Present weather additional phenomenon: Volcanic ash suspended in the air aloft</title>
  <desc>WMO international weather symbol: Present weather additional phenomenon: Volcanic ash suspended in the air aloft</desc>
  <g transform="translate(0,4.4279661)" id="g2997">
    <path d="m 25.588983,-20.466102 c 0,2.356194 -2.143806,4.499998 -4.5,4.499998 -2.356194,0 -4.5,-2.143804 -4.5,-4.499998 0,-2.356194 -2.143806,-4.499998 -4.5,-4.499998 -2.3561944,0 -4.5,2.143804 -4.5,4.499998 0,2.356194 -2.1438056,4.499998 -4.5,4.499998 -2.35619437,0 -4.5,-2.143804 -4.5,-4.499998 0,-2.356194 -2.143806,-4.499998 -4.5,-4.499998 -2.356194,0 -4.5,2.143804 -4.5,4.499998 L -24.394068,14.279661 6.7584749,13.98305 -10.021186,-19.576272" id="path3001" style="fill:none;stroke:#000000;stroke-width:3"/>
  </g>
</svg>

