<?xml version='1.0' encoding='UTF-8'?>
<svg xmlns="http://www.w3.org/2000/svg" xmlns:xlink="http://www.w3.org/1999/xlink" version="1.1" width="55" height="55" viewBox="-27.5 -27.5 55 55" id="svg3004">
  <title>Present weather additional phenomenon: Rain and snow (slight, moderate or heavy, at the station, at the time of observation)</title>
  <desc>WMO international weather symbol: Present weather additional phenomenon: Rain and snow (slight, moderate or heavy, at the station, at the time of observation)</desc>
  <g id="g3060">
    <g transform="translate(11.186441,0.46610169)" id="g3023">
      <g id="g3048">
        <g transform="translate(0,14)" id="ww_70">
          <path d="m 0,-5.5 v 11" id="ww70arm" style="stroke:#000000;stroke-width:3;stroke-linecap:round"/>
          <use transform="matrix(0.5,0.8660254,-0.8660254,0.5,0,0)" id="use3009" x="0" y="0" width="55" height="55" xlink:href="#ww70arm"/>
          <use transform="matrix(-0.5,0.8660254,-0.8660254,-0.5,0,0)" id="use3011" x="0" y="0" width="55" height="55" xlink:href="#ww70arm"/>
        </g>
        <use id="use3013" x="0" y="-28" width="55" height="55" xlink:href="#ww_70"/>
        <circle cx="0" cy="0" r="5.5" id="circle3015" style="fill:#000000"/>
      </g>
    </g>
    <g transform="translate(-13.283898,-0.05084743)" id="g3019">
      <g transform="translate(0,7)" id="ww_70-1">
        <path d="m 0,-5.5 v 11" id="ww70arm-7" style="stroke:#000000;stroke-width:3;stroke-linecap:round"/>
        <use transform="matrix(0.5,0.8660254,-0.8660254,0.5,0,0)" id="use3007" x="0" y="0" width="744.09448" height="1052.3622" xlink:href="#ww70arm-7"/>
        <use transform="matrix(-0.5,0.8660254,-0.8660254,-0.5,0,0)" id="use3009-4" x="0" y="0" width="744.09448" height="1052.3622" xlink:href="#ww70arm-7"/>
      </g>
      <circle cx="0" cy="-7" r="5.5" id="circle3011" style="fill:#000000"/>
    </g>
    <path d="M -7.6906785,19.809322 C 5.1271185,-21.673729 5.1271185,-21.673729 5.1271185,-21.673729" id="path3056" style="fill:none;stroke:#000000;stroke-width:1.5;stroke-linecap:butt;stroke-linejoin:miter;stroke-miterlimit:4;stroke-opacity:1;stroke-dasharray:none"/>
  </g>
</svg>

