<?xml version='1.0' encoding='UTF-8'?>
<svg xmlns="http://www.w3.org/2000/svg" version="1.1" width="55" height="55" viewBox="-27.5 -27.5 55 55" id="svg3002">
  <title>Present weather additional phenomenon: Wall of dust or sand in distance (like haboob)</title>
  <desc>WMO international weather symbol: Present weather additional phenomenon: Wall of dust or sand in distance (like haboob)</desc>
  <defs id="defs3015">
    <marker refX="0" refY="0" orient="auto" id="Arrow2Send" style="overflow:visible">
      <path d="M 8.7185878,4.0337352 -2.2072895,0.01601326 8.7185884,-4.0017078 c -1.7454984,2.3720609 -1.7354408,5.6174519 -6e-7,8.035443 z" transform="matrix(-0.3,0,0,-0.3,0.69,0)" id="path3823" style="font-size:12px;fill-rule:evenodd;stroke-width:0.625;stroke-linejoin:round"/>
    </marker>
  </defs>
  <g id="g3005" style="fill:none;stroke:#000000;stroke-width:3">
    <path d="m 2,0 c -3.5342917,0 -6.9624203,-2.2906086 -8.3148534,-5.5557973 -1.3524331,-3.2651888 -0.547896,-7.3087287 1.9512156,-9.8078407 2.4991117,-2.499111 14.0627995,-1.725121 17.5664608,-1.26156" id="arc" style="fill:none;marker-start:none;marker-end:url(#Arrow2Send)"/>
    <path d="M 2,0 A 9,9 0 1 1 -7,9" id="arc2" style="fill:none"/>
  </g>
  <path d="M 18,0 16.5,-1 V 1 L 18,0 z m 0,0 h -32.5" id="path3011" style="fill:none;stroke:#000000;stroke-width:3"/>
</svg>

