<?xml version='1.0' encoding='UTF-8'?>
<svg xmlns="http://www.w3.org/2000/svg" version="1.1" width="55" height="55" viewBox="-27.5 -27.5 55 55" id="svg3898">
  <title>Present weather additional phenomenon: Shower(s) or thunderstorm over mountains</title>
  <desc>WMO international weather symbol: Present weather additional phenomenon: Shower(s) or thunderstorm over mountains</desc>
  <defs id="defs3906">
    <marker refX="0" refY="0" orient="auto" id="TriangleOutS" style="overflow:visible">
      <path d="m 5.77,0 -8.65,5 0,-10 8.65,5 z" transform="scale(0.2,0.2)" id="path4660" style="fill-rule:evenodd;stroke:#000000;stroke-width:1pt;marker-start:none"/>
    </marker>
  </defs>
  <g id="g4459">
    <g transform="matrix(1,0,0,-1,-0.32958367,25.495431)" id="g5320">
      <path d="M -18.444787,9.0911331 -10.672602,15.731468 -0.80797378,8.6104204 7.6116495,15.58717 16.843502,9.2764187" id="path4457" style="fill:none;stroke:#000000;stroke-width:3;stroke-linecap:round;stroke-linejoin:miter;stroke-miterlimit:4;stroke-opacity:1;stroke-dasharray:none"/>
    </g>
    <g transform="matrix(0.91787728,0,0,0.9659868,20.114284,0.361389)" id="g5602">
      <g transform="translate(0.18858879,2.0642425)" id="g5630">
        <g transform="translate(-0.47057855,0.58584182)" id="g5599">
          <path d="m -19.3776,-13.80306 14.1489815,0 -5.8019195,7.6830782 6.0966899,5.38585877" id="path5373" style="fill:none;stroke:#000000;stroke-width:2.65498519;stroke-miterlimit:4;stroke-dasharray:none;marker-end:url(#TriangleOutS)"/>
        </g>
        <path d="m -16.968127,-13.047103 0,15.5251972" id="path5375" style="fill:none;stroke:#000000;stroke-width:2.65498519;stroke-miterlimit:4;stroke-dasharray:none"/>
      </g>
    </g>
    <path d="m -12.779215,-10.752445 5.9906842,0 -6.1554762,12.8349892 -5.825892,-12.8349892 z" id="path5345" style="fill:none;stroke:#000000;stroke-width:2.5;stroke-miterlimit:4;stroke-dasharray:none"/>
    <path d="m -8.0908244,5.7837389 8.32240609,-20.0123339 0.15449903,0" id="path5625" style="fill:none;stroke:#000000;stroke-width:1.5;stroke-linecap:round;stroke-linejoin:miter;stroke-miterlimit:4;stroke-opacity:1;stroke-dasharray:none"/>
  </g>
</svg>

