<?xml version='1.0' encoding='UTF-8'?>
<svg xmlns="http://www.w3.org/2000/svg" version="1.1" width="440" height="55" viewBox="0 0 440 55" id="svg2">
  <title>Type of front: Cold front frontogenesis</title>
  <desc>WMO international weather symbol: Type of front: Cold front frontogenesis</desc>
  <g id="g3845" style="fill:#000000;fill-opacity:1">
    <g transform="matrix(1,0,0,0.93177399,0,3.0829001)" id="g3838" style="fill:#000000;fill-opacity:1">
      <path d="M 94.751238,19.577379 120,-24.154758 145.24876,19.57738 z" transform="matrix(0.89605906,0,0,0.89605906,-70.151468,27.457511)" id="path4075-3" style="fill:#000000;fill-opacity:1;stroke:#000000;stroke-width:5;stroke-linecap:round;stroke-linejoin:miter;stroke-miterlimit:4;stroke-opacity:1;stroke-dasharray:none;stroke-dashoffset:0"/>
      <path d="M 94.751238,19.577379 120,-24.154758 145.24876,19.57738 z" transform="matrix(0.89605906,0,0,0.89605906,12.848532,27.457511)" id="path4075-3-0" style="fill:#000000;fill-opacity:1;stroke:#000000;stroke-width:5;stroke-linecap:round;stroke-linejoin:miter;stroke-miterlimit:4;stroke-opacity:1;stroke-dasharray:none;stroke-dashoffset:0"/>
      <path d="M 94.751238,19.577379 120,-24.154758 145.24876,19.57738 z" transform="matrix(0.89605906,0,0,0.89605906,96.47291,27.64409)" id="path4075-3-7" style="fill:#000000;fill-opacity:1;stroke:#000000;stroke-width:5;stroke-linecap:round;stroke-linejoin:miter;stroke-miterlimit:4;stroke-opacity:1;stroke-dasharray:none;stroke-dashoffset:0"/>
      <path d="M 94.751238,19.577379 120,-24.154758 145.24876,19.57738 z" transform="matrix(0.89605906,0,0,0.89605906,179.84853,27.457511)" id="path4075-3-6" style="fill:#000000;fill-opacity:1;stroke:#000000;stroke-width:5;stroke-linecap:round;stroke-linejoin:miter;stroke-miterlimit:4;stroke-opacity:1;stroke-dasharray:none;stroke-dashoffset:0"/>
      <path d="M 94.751238,19.577379 120,-24.154758 145.24876,19.57738 z" transform="matrix(0.89605906,0,0,0.89605906,261.84853,27.457511)" id="path4075-3-3" style="fill:#000000;fill-opacity:1;stroke:#000000;stroke-width:5;stroke-linecap:round;stroke-linejoin:miter;stroke-miterlimit:4;stroke-opacity:1;stroke-dasharray:none;stroke-dashoffset:0"/>
    </g>
    <path d="m 82.095587,20.422794 a 2.2242645,2.2242645 0 1 1 -4.448529,0 2.2242645,2.2242645 0 1 1 4.448529,0 z" transform="translate(-0.40441176,23.455882)" id="path3029" style="fill:#000000;fill-opacity:1;fill-rule:evenodd;stroke:#000000;stroke-width:1px;stroke-linecap:butt;stroke-linejoin:miter;stroke-opacity:1"/>
    <path d="m 82.095587,20.422794 a 2.2242645,2.2242645 0 1 1 -4.448529,0 2.2242645,2.2242645 0 1 1 4.448529,0 z" transform="translate(83.915442,23.680147)" id="path3029-1" style="fill:#000000;fill-opacity:1;fill-rule:evenodd;stroke:#000000;stroke-width:1px;stroke-linecap:butt;stroke-linejoin:miter;stroke-opacity:1"/>
    <path d="m 82.095587,20.422794 a 2.2242645,2.2242645 0 1 1 -4.448529,0 2.2242645,2.2242645 0 1 1 4.448529,0 z" transform="translate(168.84191,24.466912)" id="path3029-7" style="fill:#000000;fill-opacity:1;fill-rule:evenodd;stroke:#000000;stroke-width:1px;stroke-linecap:butt;stroke-linejoin:miter;stroke-opacity:1"/>
    <path d="m 82.095587,20.422794 a 2.2242645,2.2242645 0 1 1 -4.448529,0 2.2242645,2.2242645 0 1 1 4.448529,0 z" transform="translate(250.9375,24.0625)" id="path3029-4" style="fill:#000000;fill-opacity:1;fill-rule:evenodd;stroke:#000000;stroke-width:1px;stroke-linecap:butt;stroke-linejoin:miter;stroke-opacity:1"/>
    <path d="m 82.095587,20.422794 a 2.2242645,2.2242645 0 1 1 -4.448529,0 2.2242645,2.2242645 0 1 1 4.448529,0 z" transform="translate(327.37132,24.466912)" id="path3029-0" style="fill:#000000;fill-opacity:1;fill-rule:evenodd;stroke:#000000;stroke-width:1px;stroke-linecap:butt;stroke-linejoin:miter;stroke-opacity:1"/>
  </g>
</svg>

