<?xml version='1.0' encoding='UTF-8'?>
<svg xmlns="http://www.w3.org/2000/svg" version="1.1" width="440" height="55" viewBox="0 0 440 55" id="svg2">
  <title>Type of front: Axis of ridge</title>
  <desc>WMO international weather symbol: Type of front: Axis of ridge</desc>
  <path d="M 10,30 20,20 30,30 40,20 50,30 60,20 70,30 80,20 l 10,10 10,-10 10,10 10,-10 10,10 10,-10 10,10 10,-10 10,10 10,-10 10,10 10,-10 10,10 10,-10 10,10 10,-10 10,10 10,-10 10,10 10,-10 10,10 10,-10 10,10 10,-10 10,10 10,-10 10,10 10,-10 10,10 10,-10 10,10 10,-10 10,10 10,-10 10,10" id="path2988" style="fill:none;stroke:#000000;stroke-width:3;stroke-linecap:butt;stroke-linejoin:miter;stroke-miterlimit:4;stroke-opacity:1;stroke-dasharray:none"/>
</svg>

